{
    "accessors" : [
        {
            "bufferView" : 0,
            "componentType" : 5121,
            "count" : 432,
            "max" : [
                223
            ],
            "min" : [
                0
            ],
            "type" : "SCALAR"
        },
        {
            "bufferView" : 1,
            "componentType" : 5126,
            "count" : 224,
            "max" : [
                3.0605688095092773,
                1.0000001192092896,
                1.0
            ],
            "min" : [
                1.0605688095092773,
                -1.0,
                -1.0
            ],
            "type" : "VEC3"
        },
        {
            "bufferView" : 2,
            "componentType" : 5126,
            "count" : 224,
            "max" : [
                1.0,
                1.0,
                1.0
            ],
            "min" : [
                -1.0,
                -1.0,
                -1.0
            ],
            "type" : "VEC3"
        },
        {
            "bufferView" : 3,
            "componentType" : 5126,
            "count" : 224,
            "max" : [
                1.0,
                1.0252812504768372
            ],
            "min" : [
                -0.003294810652732849,
                -0.010819435119628906
            ],
            "type" : "VEC2"
        }
    ],
    "asset" : {
        "generator" : "Khronos Blender glTF 2.0 exporter",
        "version" : "2.0"
    },
    "bufferViews" : [
        {
            "buffer" : 0,
            "byteLength" : 432,
            "byteOffset" : 0,
            "target" : 34963
        },
        {
            "buffer" : 0,
            "byteLength" : 2688,
            "byteOffset" : 432,
            "target" : 34962
        },
        {
            "buffer" : 0,
            "byteLength" : 2688,
            "byteOffset" : 3120,
            "target" : 34962
        },
        {
            "buffer" : 0,
            "byteLength" : 1792,
            "byteOffset" : 5808,
            "target" : 34962
        }
    ],
    "buffers" : [
        {
            "byteLength" : 7600,
            "uri" : "test.bin"
        }
    ],
    "images" : [
        {
            "name" : "brick",
            "uri" : "brick.jpg"
        },
        {
            "name" : "brick_NRM",
            "uri" : "brick_NRM.jpg"
        }
    ],
    "materials" : [
        {
            "name" : "Material.001",
            "normalTexture" : {
                "index" : 1
            },
            "pbrMetallicRoughness" : {
                "baseColorTexture" : {
                    "index" : 0
                }
            }
        }
    ],
    "meshes" : [
        {
            "name" : "Cube.001",
            "primitives" : [
                {
                    "attributes" : {
                        "NORMAL" : 2,
                        "POSITION" : 1,
                        "TEXCOORD_0" : 3
                    },
                    "indices" : 0,
                    "material" : 0
                }
            ]
        }
    ],
    "nodes" : [
        {
            "mesh" : 0,
            "name" : "Cube",
            "rotation" : [
                -0.7071068286895752,
                0.0,
                -0.0,
                0.7071068286895752
            ],
            "translation" : [
                -3.0293779373168945,
                0.9579268097877502,
                -0.15117323398590088
            ]
        },
        {
            "name" : "Point",
            "translation" : [
                -0.8175901770591736,
                1.1695932149887085,
                1.3843997716903687
            ]
        },
        {
            "name" : "Sun",
            "rotation" : [
                0.09475542604923248,
                -0.16057147085666656,
                -0.028861921280622482,
                0.9820413589477539
            ],
            "scale" : [
                0.9999999403953552,
                0.9999999403953552,
                1.0
            ],
            "translation" : [
                -0.8175901770591736,
                83.84732055664062,
                65.45127868652344
            ]
        }
    ],
    "samplers" : [
        {}
    ],
    "scene" : 0,
    "scenes" : [
        {
            "name" : "Scene",
            "nodes" : [
                1,
                2,
                0
            ]
        }
    ],
    "textures" : [
        {
            "sampler" : 0,
            "source" : 0
        },
        {
            "sampler" : 0,
            "source" : 1
        }
    ]
}
