# Blender v2.78 (sub 0) OBJ File: 'bench.blend'
# www.blender.org
mtllib bench.mtl
o Cube
v 2.969457 0.000073 -0.243042
v 2.969457 0.000073 1.000000
v 2.969458 0.749289 -0.243042
v 2.969456 0.749289 1.000001
v 2.198962 0.000073 -0.243042
v 2.198962 0.000073 1.000000
v 2.198962 0.749289 -0.243042
v 2.198961 0.749289 1.000000
v 2.584209 1.473459 0.378479
v 2.969458 1.112818 -0.243042
v 2.969456 1.112818 1.000001
v 2.198962 1.112818 -0.243042
v 2.198961 1.112818 1.000000
v 0.689476 0.000073 -0.243042
v 0.689476 0.000073 1.000000
v 0.689476 0.749289 -0.243042
v 0.689475 0.749289 1.000000
v 0.689476 1.174255 -0.243042
v 0.689475 1.174255 1.000000
v 0.344738 1.504214 0.378479
v -2.969457 0.000073 -0.243042
v -2.969457 0.000073 1.000000
v -2.969458 0.749289 -0.243042
v -2.969456 0.749289 1.000001
v 0.000000 0.000073 -0.243042
v 0.000000 0.000073 1.000000
v 0.000000 0.749289 -0.243042
v 0.000000 0.749289 1.000000
v -2.198962 0.000073 -0.243042
v -2.198962 0.000073 1.000000
v -2.198962 0.749289 -0.243042
v -2.198961 0.749289 1.000000
v -2.584209 1.473459 0.378479
v -2.969458 1.112818 -0.243042
v -2.969456 1.112818 1.000001
v -2.198962 1.112818 -0.243042
v -2.198961 1.112818 1.000000
v -0.689476 0.000073 -0.243042
v -0.689476 0.000073 1.000000
v -0.689476 0.749289 -0.243042
v -0.689475 0.749289 1.000000
v -0.689476 1.174255 -0.243042
v 0.000000 1.174255 -0.243042
v -0.689475 1.174255 1.000000
v 0.000000 1.174255 1.000000
v -0.344738 1.504214 0.378479
vn 1.0000 -0.0000 0.0000
vn 0.0000 0.0000 -1.0000
vn 0.0000 -0.0000 1.0000
vn 0.0000 -1.0000 0.0000
vn -1.0000 0.0000 -0.0000
vn 0.6834 0.7300 0.0000
vn 0.0000 0.8649 -0.5019
vn -0.0000 0.8649 0.5019
vn -0.6834 0.7300 -0.0000
vn 0.0000 1.0000 0.0000
vn 0.6915 0.7224 0.0000
vn 0.0000 0.8832 0.4689
vn -0.6915 0.7224 0.0000
vn 0.0000 0.8832 -0.4689
usemtl Material
s off
f 3//1 2//1 1//1
f 14//2 27//2 16//2
f 17//3 26//3 15//3
f 14//4 26//4 25//4
f 2//4 5//4 1//4
f 8//5 12//5 7//5
f 4//3 6//3 2//3
f 1//2 7//2 3//2
f 4//3 13//3 8//3
f 3//1 11//1 4//1
f 7//2 10//2 3//2
f 9//6 11//6 10//6
f 9//7 10//7 12//7
f 9//8 13//8 11//8
f 9//9 12//9 13//9
f 6//4 14//4 5//4
f 16//10 8//10 7//10
f 8//3 15//3 6//3
f 5//2 16//2 7//2
f 19//11 18//11 20//11
f 27//2 18//2 16//2
f 16//1 19//1 17//1
f 17//3 45//3 28//3
f 45//12 19//12 20//12
f 43//13 45//13 20//13
f 18//14 43//14 20//14
f 22//5 23//5 21//5
f 27//2 38//2 40//2
f 26//3 41//3 39//3
f 43//1 28//1 27//1
f 38//4 26//4 39//4
f 29//4 22//4 21//4
f 36//1 32//1 31//1
f 30//3 24//3 22//3
f 31//2 21//2 23//2
f 37//3 24//3 32//3
f 35//5 23//5 24//5
f 34//2 31//2 23//2
f 33//9 34//9 35//9
f 33//7 36//7 34//7
f 33//8 35//8 37//8
f 33//6 37//6 36//6
f 38//4 30//4 29//4
f 32//10 40//10 31//10
f 39//3 32//3 30//3
f 40//2 29//2 31//2
f 44//13 46//13 42//13
f 42//2 27//2 40//2
f 44//5 40//5 41//5
f 45//3 41//3 28//3
f 45//12 46//12 44//12
f 43//11 46//11 45//11
f 42//14 46//14 43//14
f 3//1 4//1 2//1
f 14//2 25//2 27//2
f 17//3 28//3 26//3
f 14//4 15//4 26//4
f 2//4 6//4 5//4
f 8//5 13//5 12//5
f 4//3 8//3 6//3
f 1//2 5//2 7//2
f 4//3 11//3 13//3
f 3//1 10//1 11//1
f 7//2 12//2 10//2
f 6//4 15//4 14//4
f 16//10 17//10 8//10
f 8//3 17//3 15//3
f 5//2 14//2 16//2
f 27//2 43//2 18//2
f 16//1 18//1 19//1
f 17//3 19//3 45//3
f 22//5 24//5 23//5
f 27//2 25//2 38//2
f 26//3 28//3 41//3
f 43//1 45//1 28//1
f 38//4 25//4 26//4
f 29//4 30//4 22//4
f 36//1 37//1 32//1
f 30//3 32//3 24//3
f 31//2 29//2 21//2
f 37//3 35//3 24//3
f 35//5 34//5 23//5
f 34//2 36//2 31//2
f 38//4 39//4 30//4
f 32//10 41//10 40//10
f 39//3 41//3 32//3
f 40//2 38//2 29//2
f 42//2 43//2 27//2
f 44//5 42//5 40//5
f 45//3 44//3 41//3
